<svg width="802" height="452" viewBox="0 0 802 452" fill="none" xmlns="http://www.w3.org/2000/svg">
<g opacity="0.4">
<path d="M1 303.407L177.714 165.288L296.104 176.919L411.011 121.672L558.999 143.48L706.986 1" stroke="#FFC960" stroke-width="2"/>
<path d="M7.96875 322.307L184.683 184.189L303.073 195.82L417.98 140.572L565.967 162.38L713.954 19.9004" stroke="#FFC960" stroke-width="2"/>
<path d="M13.1797 338.3L189.894 200.182L308.283 211.813L423.191 156.565L571.178 178.374L719.165 35.8936" stroke="#FFC960" stroke-width="2"/>
<path d="M28.8594 354.292L205.573 216.174L323.963 227.805L438.871 172.558L586.858 194.366L734.845 51.8857" stroke="#FFC960" stroke-width="2"/>
<path d="M37.5625 371.74L214.277 233.621L332.666 245.252L447.574 190.005L595.561 211.813L743.548 69.333" stroke="#FFC960" stroke-width="2"/>
<path d="M56.7109 384.825L233.425 246.706L351.815 258.337L466.722 203.09L614.709 224.898L762.697 82.418" stroke="#FFC960" stroke-width="2"/>
<path d="M56.7109 399.363L233.425 261.244L351.815 272.875L466.722 217.628L614.709 239.436L762.697 96.9561" stroke="#FFC960" stroke-width="2"/>
<path d="M74.125 410.993L250.839 272.874L369.229 284.505L484.136 229.258L632.124 251.066L780.111 108.586" stroke="#FFC960" stroke-width="2"/>
<path d="M84.5703 424.079L261.284 285.96L379.674 297.591L494.582 242.344L642.569 264.152L790.556 121.672" stroke="#FFC960" stroke-width="2"/>
<path d="M88.0469 437.164L264.761 299.045L383.151 310.676L498.058 255.429L646.045 277.237L794.033 134.757" stroke="#FFC960" stroke-width="2"/>
<path d="M95.0156 450.25L271.73 312.131L390.119 323.762L505.027 268.515L653.014 290.323L801.001 147.843" stroke="#FFC960" stroke-width="2"/>
</g>
</svg>
